HIERARCHY
ROOT newVegas:Hips
{
	OFFSET 0.000000 96.479958 0.000000
	CHANNELS 6 Xposition Yposition Zposition Xrotation Yrotation Zrotation
	JOINT newVegas:Pelvis
	{
		OFFSET 0.000000 0.000000 0.000000
		CHANNELS 3 Xrotation Yrotation Zrotation
		JOINT newVegas:LeftUpLeg
		{
			OFFSET 18.735201 -5.666702 -4.541200
			CHANNELS 3 Xrotation Yrotation Zrotation
			JOINT newVegas:LeftLeg
			{
				OFFSET -0.021200 -31.938179 0.493100
				CHANNELS 3 Xrotation Yrotation Zrotation
				JOINT newVegas:LeftFoot
				{
					OFFSET 0.021200 -31.938179 -4.336299
					CHANNELS 3 Xrotation Yrotation Zrotation
					JOINT newVegas:LeftToeBase
					{
						OFFSET 0.943001 -26.722000 15.023500
						CHANNELS 3 Xrotation Yrotation Zrotation
						End Site
						{
							OFFSET 0.000000 30.670183 0.000000
						}
					}
				}
				JOINT newVegas:Left_PantLeg
				{
					OFFSET 0.663870 -9.044666 -1.108900
					CHANNELS 3 Xrotation Yrotation Zrotation
					End Site
					{
						OFFSET 1.415995 20.635357 0.000000
					}
				}
			}
		}
		JOINT newVegas:RightUpLeg
		{
			OFFSET -18.735201 -5.666702 -4.541200
			CHANNELS 3 Xrotation Yrotation Zrotation
			JOINT newVegas:RightLeg
			{
				OFFSET 0.018946 -31.938133 0.493100
				CHANNELS 3 Xrotation Yrotation Zrotation
				JOINT newVegas:RightFoot
				{
					OFFSET -0.018946 -31.938126 -4.336299
					CHANNELS 3 Xrotation Yrotation Zrotation
					JOINT newVegas:RightToeBase
					{
						OFFSET -0.943001 -26.722004 15.023500
						CHANNELS 3 Xrotation Yrotation Zrotation
						End Site
						{
							OFFSET 0.000000 30.670187 0.000000
						}
					}
				}
				JOINT newVegas:Right_PantLeg
				{
					OFFSET -0.661674 -9.044716 -1.108900
					CHANNELS 3 Xrotation Yrotation Zrotation
					End Site
					{
						OFFSET -1.415958 20.635269 0.000000
					}
				}
			}
		}
	}
	JOINT newVegas:Spine
	{
		OFFSET 0.000000 10.199997 -0.299500
		CHANNELS 3 Xrotation Yrotation Zrotation
		JOINT newVegas:Spine1
		{
			OFFSET 0.000000 11.900002 -1.516600
			CHANNELS 3 Xrotation Yrotation Zrotation
			JOINT newVegas:Spine2
			{
				OFFSET 0.000000 13.600006 -2.842500
				CHANNELS 3 Xrotation Yrotation Zrotation
				JOINT newVegas:Neck
				{
					OFFSET 0.000000 9.624100 -2.890100
					CHANNELS 3 Xrotation Yrotation Zrotation
					JOINT newVegas:Head
					{
						OFFSET 0.000000 14.068802 -1.351900
						CHANNELS 3 Xrotation Yrotation Zrotation
						JOINT newVegas:Hair_Back
						{
							OFFSET 0.000000 3.231903 -17.524799
							CHANNELS 3 Xrotation Yrotation Zrotation
							End Site
							{
								OFFSET 0.000000 19.849884 0.000000
							}
						}
						JOINT newVegas:Hair_Front
						{
							OFFSET 0.000000 31.260406 4.573800
							CHANNELS 3 Xrotation Yrotation Zrotation
							JOINT newVegas:Hair_Front1
							{
								OFFSET 0.000000 2.284103 11.993300
								CHANNELS 3 Xrotation Yrotation Zrotation
								JOINT newVegas:Hair_Front2
								{
									OFFSET 0.000000 2.284103 11.993300
									CHANNELS 3 Xrotation Yrotation Zrotation
									End Site
									{
										OFFSET 0.000000 12.208862 0.000000
									}
								}
							}
						}
						JOINT newVegas:Jowel
						{
							OFFSET 0.000000 -7.458206 6.864100
							CHANNELS 3 Xrotation Yrotation Zrotation
							End Site
							{
								OFFSET 0.000000 19.849884 0.000000
							}
						}
					}
				}
				JOINT newVegas:LeftShoulder
				{
					OFFSET 15.263000 10.923401 -0.547700
					CHANNELS 3 Xrotation Yrotation Zrotation
					JOINT newVegas:LeftArm
					{
						OFFSET 25.438599 -2.830597 -13.032500
						CHANNELS 3 Xrotation Yrotation Zrotation
						JOINT newVegas:LeftForeArm
						{
							OFFSET 29.960503 0.000000 0.000000
							CHANNELS 3 Xrotation Yrotation Zrotation
							JOINT newVegas:LeftHand
							{
								OFFSET 27.849251 0.000000 0.000000
								CHANNELS 3 Xrotation Yrotation Zrotation
								JOINT newVegas:LeftHandThumb1
								{
									OFFSET 4.487587 -3.305161 6.305391
									CHANNELS 3 Xrotation Yrotation Zrotation
									JOINT newVegas:LeftHandThumb2
									{
										OFFSET 5.480453 -3.164139 3.164143
										CHANNELS 3 Xrotation Yrotation Zrotation
										JOINT newVegas:LeftHandThumb3
										{
											OFFSET 5.159721 -2.978973 2.978967
											CHANNELS 3 Xrotation Yrotation Zrotation
											End Site
											{
												OFFSET 2.494507 5.926697 1.738678
											}
										}
									}
								}
								JOINT newVegas:LeftHandIndex1
								{
									OFFSET 18.578728 -0.527832 5.208049
									CHANNELS 3 Xrotation Yrotation Zrotation
									JOINT newVegas:LeftHandIndex2
									{
										OFFSET 3.192009 0.000000 0.000000
										CHANNELS 3 Xrotation Yrotation Zrotation
										JOINT newVegas:LeftHandIndex3
										{
											OFFSET 3.835129 0.000000 0.000000
											CHANNELS 3 Xrotation Yrotation Zrotation
											End Site
											{
												OFFSET -0.034599 3.816971 0.371180
											}
										}
									}
								}
								JOINT newVegas:LeftHandMiddle1
								{
									OFFSET 18.476105 0.000000 0.000000
									CHANNELS 3 Xrotation Yrotation Zrotation
									JOINT newVegas:LeftHandMiddle2
									{
										OFFSET 3.324875 0.000000 0.000000
										CHANNELS 3 Xrotation Yrotation Zrotation
										JOINT newVegas:LeftHandMiddle3
										{
											OFFSET 4.596550 0.000000 0.000000
											CHANNELS 3 Xrotation Yrotation Zrotation
											End Site
											{
												OFFSET 0.057701 4.578827 0.399218
											}
										}
									}
								}
								JOINT newVegas:LeftHandRing1
								{
									OFFSET 17.732719 0.121887 -4.201567
									CHANNELS 3 Xrotation Yrotation Zrotation
									JOINT newVegas:LeftHandRing2
									{
										OFFSET 2.733170 0.000000 0.000000
										CHANNELS 3 Xrotation Yrotation Zrotation
										JOINT newVegas:LeftHandRing3
										{
											OFFSET 3.178268 0.000000 0.000000
											CHANNELS 3 Xrotation Yrotation Zrotation
											End Site
											{
												OFFSET 0.119102 3.170624 0.185394
											}
										}
									}
								}
								JOINT newVegas:LeftHandPinky1
								{
									OFFSET 15.989624 -0.606689 -7.535461
									CHANNELS 3 Xrotation Yrotation Zrotation
									JOINT newVegas:LeftHandPinky2
									{
										OFFSET 2.538986 0.000000 0.000000
										CHANNELS 3 Xrotation Yrotation Zrotation
										JOINT newVegas:LeftHandPinky3
										{
											OFFSET 2.593102 0.000000 0.000000
											CHANNELS 3 Xrotation Yrotation Zrotation
											End Site
											{
												OFFSET -0.150902 2.584198 0.152708
											}
										}
									}
								}
							}
							JOINT newVegas:Left_Sleeve
							{
								OFFSET 0.267448 -0.649796 0.577675
								CHANNELS 3 Xrotation Yrotation Zrotation
								End Site
								{
									OFFSET 0.000000 15.991241 0.000000
								}
							}
							JOINT newVegas:Left_CapeC
							{
								OFFSET 15.715958 -8.608795 -6.935905
								CHANNELS 3 Xrotation Yrotation Zrotation
								JOINT newVegas:Left_CapeC1
								{
									OFFSET 0.000000 -8.688499 0.000000
									CHANNELS 3 Xrotation Yrotation Zrotation
									End Site
									{
										OFFSET 0.000000 8.688499 0.000000
									}
								}
							}
						}
						JOINT newVegas:Left_CapeB
						{
							OFFSET 26.118385 -8.608795 -7.079235
							CHANNELS 3 Xrotation Yrotation Zrotation
							JOINT newVegas:Left_CapeB1
							{
								OFFSET 0.000000 -8.688499 0.000000
								CHANNELS 3 Xrotation Yrotation Zrotation
								End Site
								{
									OFFSET 0.000000 8.688499 0.000000
								}
							}
						}
						JOINT newVegas:Left_CapeA
						{
							OFFSET 5.115639 -8.608795 -10.395809
							CHANNELS 3 Xrotation Yrotation Zrotation
							JOINT newVegas:Left_CapeA1
							{
								OFFSET 0.000000 -8.688499 0.000000
								CHANNELS 3 Xrotation Yrotation Zrotation
								End Site
								{
									OFFSET 0.000000 8.688499 0.000000
								}
							}
						}
					}
				}
				JOINT newVegas:RightShoulder
				{
					OFFSET -15.263000 10.923401 -0.547700
					CHANNELS 3 Xrotation Yrotation Zrotation
					JOINT newVegas:RightArm
					{
						OFFSET -25.438599 -2.830597 -13.032500
						CHANNELS 3 Xrotation Yrotation Zrotation
						JOINT newVegas:RightForeArm
						{
							OFFSET -29.960503 0.000000 0.000000
							CHANNELS 3 Xrotation Yrotation Zrotation
							JOINT newVegas:RightHand
							{
								OFFSET -27.849251 0.000000 0.000000
								CHANNELS 3 Xrotation Yrotation Zrotation
								JOINT newVegas:RightHandThumb1
								{
									OFFSET -4.487587 -3.305161 6.305391
									CHANNELS 3 Xrotation Yrotation Zrotation
									JOINT newVegas:RightHandThumb2
									{
										OFFSET -5.480453 -3.164139 3.164143
										CHANNELS 3 Xrotation Yrotation Zrotation
										JOINT newVegas:RightHandThumb3
										{
											OFFSET -5.159721 -2.978973 2.978967
											CHANNELS 3 Xrotation Yrotation Zrotation
											End Site
											{
												OFFSET -2.494507 5.926697 1.738678
											}
										}
									}
								}
								JOINT newVegas:RightHandIndex1
								{
									OFFSET -18.578728 -0.527832 5.208049
									CHANNELS 3 Xrotation Yrotation Zrotation
									JOINT newVegas:RightHandIndex2
									{
										OFFSET -3.192009 0.000000 0.000000
										CHANNELS 3 Xrotation Yrotation Zrotation
										JOINT newVegas:RightHandIndex3
										{
											OFFSET -3.835129 0.000000 0.000000
											CHANNELS 3 Xrotation Yrotation Zrotation
											End Site
											{
												OFFSET 0.034599 3.816971 0.371180
											}
										}
									}
								}
								JOINT newVegas:RightHandMiddle1
								{
									OFFSET -18.476105 0.000000 0.000000
									CHANNELS 3 Xrotation Yrotation Zrotation
									JOINT newVegas:RightHandMiddle2
									{
										OFFSET -3.324875 0.000000 0.000000
										CHANNELS 3 Xrotation Yrotation Zrotation
										JOINT newVegas:RightHandMiddle3
										{
											OFFSET -4.596550 0.000000 0.000000
											CHANNELS 3 Xrotation Yrotation Zrotation
											End Site
											{
												OFFSET -0.057701 4.578827 0.399218
											}
										}
									}
								}
								JOINT newVegas:RightHandRing1
								{
									OFFSET -17.732719 0.121887 -4.201567
									CHANNELS 3 Xrotation Yrotation Zrotation
									JOINT newVegas:RightHandRing2
									{
										OFFSET -2.733170 0.000000 0.000000
										CHANNELS 3 Xrotation Yrotation Zrotation
										JOINT newVegas:RightHandRing3
										{
											OFFSET -3.178268 0.000000 0.000000
											CHANNELS 3 Xrotation Yrotation Zrotation
											End Site
											{
												OFFSET -0.119102 3.170624 0.185394
											}
										}
									}
								}
								JOINT newVegas:RightHandPinky1
								{
									OFFSET -15.989624 -0.606689 -7.535461
									CHANNELS 3 Xrotation Yrotation Zrotation
									JOINT newVegas:RightHandPinky2
									{
										OFFSET -2.538986 0.000000 0.000000
										CHANNELS 3 Xrotation Yrotation Zrotation
										JOINT newVegas:RightHandPinky3
										{
											OFFSET -2.593102 0.000000 0.000000
											CHANNELS 3 Xrotation Yrotation Zrotation
											End Site
											{
												OFFSET 0.150902 2.584198 0.152708
											}
										}
									}
								}
							}
							JOINT newVegas:Right_CapeC
							{
								OFFSET -15.715958 -8.608795 -6.935905
								CHANNELS 3 Xrotation Yrotation Zrotation
								JOINT newVegas:Right_CapeC1
								{
									OFFSET 0.000000 -8.688499 0.000000
									CHANNELS 3 Xrotation Yrotation Zrotation
									End Site
									{
										OFFSET 0.000000 8.688499 0.000000
									}
								}
							}
							JOINT newVegas:Right_Sleeve
							{
								OFFSET -0.267448 -0.649994 0.577675
								CHANNELS 3 Xrotation Yrotation Zrotation
								End Site
								{
									OFFSET 0.000000 15.991302 0.000000
								}
							}
						}
						JOINT newVegas:Right_CapeA
						{
							OFFSET -5.115540 -8.608795 -10.395824
							CHANNELS 3 Xrotation Yrotation Zrotation
							JOINT newVegas:Right_CapeA1
							{
								OFFSET 0.000000 -8.688499 0.000000
								CHANNELS 3 Xrotation Yrotation Zrotation
								End Site
								{
									OFFSET 0.000000 8.688499 0.000000
								}
							}
						}
						JOINT newVegas:Right_CapeB
						{
							OFFSET -26.118187 -8.608795 -7.079266
							CHANNELS 3 Xrotation Yrotation Zrotation
							JOINT newVegas:Right_CapeB1
							{
								OFFSET 0.000000 -8.688499 0.000000
								CHANNELS 3 Xrotation Yrotation Zrotation
								End Site
								{
									OFFSET 0.000000 8.688499 0.000000
								}
							}
						}
					}
				}
				JOINT newVegas:Left_Collar
				{
					OFFSET 18.625099 8.655502 8.828100
					CHANNELS 3 Xrotation Yrotation Zrotation
					JOINT newVegas:Left_Collar1
					{
						OFFSET 14.783401 10.540405 -1.259500
						CHANNELS 3 Xrotation Yrotation Zrotation
						End Site
						{
							OFFSET 0.000000 18.199875 0.000000
						}
					}
				}
				JOINT newVegas:Collar_Back
				{
					OFFSET 0.000000 15.630707 -20.132601
					CHANNELS 3 Xrotation Yrotation Zrotation
					End Site
					{
						OFFSET 0.000000 22.523010 0.000000
					}
				}
				JOINT newVegas:Left_Peck
				{
					OFFSET 17.239599 -5.132599 25.482599
					CHANNELS 3 Xrotation Yrotation Zrotation
					End Site
					{
						OFFSET 0.000000 22.523010 0.000000
					}
				}
				JOINT newVegas:Right_Peck
				{
					OFFSET -17.239599 -5.132202 25.482599
					CHANNELS 3 Xrotation Yrotation Zrotation
					End Site
					{
						OFFSET 0.000000 22.523010 0.000000
					}
				}
				JOINT newVegas:Right_Collar
				{
					OFFSET -18.625099 8.655792 8.828100
					CHANNELS 3 Xrotation Yrotation Zrotation
					JOINT newVegas:Right_Collar1
					{
						OFFSET -14.783401 10.539993 -1.259500
						CHANNELS 3 Xrotation Yrotation Zrotation
						End Site
						{
							OFFSET 0.000000 18.199631 0.000000
						}
					}
				}
			}
		}
		JOINT newVegas:Belly
		{
			OFFSET 0.000000 -6.540398 9.014299
			CHANNELS 3 Xrotation Yrotation Zrotation
			End Site
			{
				OFFSET 0.000000 11.566666 0.000000
			}
		}
	}
	JOINT newVegas:ElvisFacialAnim_Joint
	{
		OFFSET 1.000000 -95.330101 -8.825800
		CHANNELS 3 Xrotation Yrotation Zrotation
		End Site
		{
			OFFSET 0.000000 35.315800 0.000000
		}
	}
}
MOTION
Frames: 4
Frame Time: 0.033333
-1.169066 75.768921 5.786133 15.206989 -14.991973 7.186657 0.000000 -0.000001 0.000001 -73.355433 -2.511853 15.595381 69.003181 6.518122 -2.594022 -6.558649 5.124675 -11.356698 -0.000000 -0.000000 -0.000000 -0.000001 0.000000 -0.000000 -59.250996 5.728769 -5.624522 85.550558 -0.627914 -3.209321 -39.620551 -7.085195 7.024579 -0.000000 0.000001 0.000000 0.000001 0.000001 -0.000000 23.678937 -7.249691 -9.092321 5.012889 -1.319895 -2.973364 5.042396 -1.231918 -2.944996 0.727354 0.677203 0.600078 0.727363 0.677203 0.600077 -0.000001 -0.000001 -0.000000 0.727296 0.677221 0.600074 0.727377 0.677197 0.600080 0.000000 0.000000 -0.000000 -0.000001 -0.000001 0.000001 3.683492 -17.494068 -8.176227 -32.788593 25.692672 -51.299918 0.000088 -83.763261 0.000118 -132.705999 11.066400 1.883859 30.453963 -20.049021 25.681440 -27.513238 19.080501 -8.263446 0.000002 0.000000 -0.000004 -2.671362 2.303768 -46.776769 3.337904 5.285547 -64.524073 0.000001 0.000002 0.000000 1.387817 6.384538 -56.671364 3.163411 5.199149 -62.614639 -0.000000 0.000002 0.000000 5.497897 8.485380 -68.009512 3.827244 5.491037 -69.731443 -0.000001 -0.000001 0.000002 8.548053 9.068201 -75.503773 2.845248 5.022244 -59.043973 -0.000000 0.000000 -0.000001 -0.000001 0.000004 -0.000001 -0.000001 0.000004 -0.000001 -0.000002 0.000004 -0.000001 -0.000000 0.000002 -0.000000 -0.000001 0.000001 0.000001 -0.000000 0.000002 -0.000000 -0.000001 0.000001 -0.000000 0.280556 26.594665 10.033980 -1.453553 36.574488 24.137342 0.000299 104.645663 -0.000295 -21.182534 -20.819272 8.621884 61.632178 28.897776 -13.280783 0.330274 -35.814821 7.397267 -0.000000 -0.000003 -0.000003 -0.575500 -0.947580 17.139380 0.321395 -1.701647 21.388399 -0.000004 0.000001 0.000001 0.670078 -5.101761 53.857753 5.248123 -4.619584 97.298060 0.000003 0.000000 -0.000002 7.412613 -8.470609 67.075463 3.825503 -4.582452 79.701846 0.000002 0.000002 0.000001 7.484590 -8.453052 67.591791 1.968023 -3.803717 54.700946 0.000001 0.000001 0.000002 -0.000001 -0.000003 -0.000001 -0.000000 -0.000001 0.000003 -0.000001 -0.000003 -0.000000 0.000003 0.000000 0.000001 0.000003 0.000001 0.000002 0.000003 0.000000 0.000001 0.000003 0.000001 0.000002 0.000001 0.000001 0.000001 0.000001 0.000001 0.000001 0.000001 0.000001 0.000001 0.000001 0.000001 0.000001 0.000001 0.000001 0.000001 0.000001 0.000001 0.000001 0.000001 0.000001 0.000001 0.000001 0.000001 0.000000 0.000000 -0.000001 0.000001 
-1.827564 76.082993 5.388613 15.402403 -13.993605 6.877510 0.000001 0.000000 -0.000000 -73.346055 -2.622822 15.871386 66.945976 5.576295 -2.582287 -4.975289 4.971412 -11.259590 0.000000 -0.000000 -0.000000 -0.000000 0.000000 -0.000000 -59.028073 4.520231 -5.127354 84.820711 -1.108861 -3.224442 -39.475338 -7.292917 6.325979 -0.000000 -0.000001 -0.000000 0.000004 0.000000 0.000000 23.629436 -7.306128 -9.076749 5.017062 -1.342756 -2.960938 5.047179 -1.254535 -2.930342 0.631203 0.886276 0.335643 0.631205 0.886280 0.335642 0.000000 -0.000000 -0.000000 0.631195 0.886294 0.335639 0.631248 0.886257 0.335644 0.000002 -0.000001 -0.000001 0.000000 -0.000000 -0.000000 3.692047 -17.421200 -8.138768 -32.871382 25.051358 -51.600075 0.000221 -83.834411 0.000215 -132.079712 10.907933 1.966712 30.476526 -20.036608 25.752431 -27.513245 19.080504 -8.263454 0.000002 0.000001 -0.000008 -2.671298 2.293902 -46.711524 3.337896 5.285547 -64.524080 -0.000000 -0.000000 0.000000 1.383157 6.379319 -56.605534 3.163415 5.199148 -62.614639 -0.000001 0.000003 0.000000 5.490793 8.484884 -67.943034 3.827241 5.491043 -69.731437 -0.000000 0.000001 0.000002 8.540232 9.071208 -75.437151 2.845248 5.022257 -59.043973 0.000000 -0.000003 -0.000000 0.000001 0.000004 -0.000001 0.000001 0.000004 -0.000001 0.000000 0.000004 -0.000001 0.000001 -0.000001 0.000000 0.000001 -0.000002 -0.000000 0.000001 -0.000001 0.000000 -0.000000 -0.000002 0.000000 0.269300 26.580166 10.121287 -1.040718 35.751116 23.787264 -0.000048 105.021863 0.000061 -21.369230 -20.147405 8.230563 61.632171 28.897772 -13.280786 0.330266 -35.814821 7.397268 0.000001 -0.000002 -0.000002 -0.575498 -0.947582 17.139376 0.321395 -1.701652 21.388399 0.000001 -0.000002 -0.000000 0.670081 -5.101764 53.857753 5.248121 -4.619580 97.298053 0.000001 0.000002 0.000001 7.412613 -8.470611 67.075470 3.825498 -4.582453 79.701846 -0.000000 0.000001 0.000002 7.484588 -8.453055 67.591784 1.968020 -3.803718 54.700946 -0.000003 -0.000000 -0.000002 -0.000000 0.000001 -0.000001 -0.000000 0.000001 0.000001 -0.000000 0.000001 -0.000000 -0.000001 0.000002 -0.000000 -0.000001 0.000003 0.000001 -0.000001 0.000002 -0.000000 -0.000001 0.000003 0.000001 -0.000001 -0.000001 0.000001 -0.000001 -0.000001 0.000001 -0.000001 -0.000001 0.000001 -0.000001 -0.000001 0.000001 -0.000001 -0.000001 0.000001 -0.000001 -0.000001 0.000001 -0.000001 -0.000001 0.000001 0.000001 -0.000002 0.000001 0.000001 0.000000 -0.000000 
-2.651690 76.438751 4.923889 15.538119 -12.558642 6.448531 0.000002 -0.000000 0.000000 -73.301269 -2.674662 16.074119 64.296621 4.302097 -2.563288 -2.923536 4.775248 -11.100731 -0.000000 -0.000001 -0.000000 0.000000 0.000000 0.000000 -58.625774 2.502441 -4.939895 84.040738 -0.579943 -3.254671 -39.575660 -7.961456 4.661334 -0.000000 -0.000002 0.000000 0.000001 0.000000 -0.000001 23.597243 -7.499449 -8.960791 5.008501 -1.409028 -2.934119 5.040882 -1.320577 -2.900281 0.564708 1.112757 0.066812 0.564724 1.112744 0.066817 0.000000 -0.000001 -0.000001 0.564816 1.112770 0.066807 0.564703 1.112749 0.066811 0.000001 0.000001 -0.000001 0.000000 -0.000001 0.000000 3.680486 -17.525446 -8.161421 -33.030781 24.596244 -51.805554 -0.000087 -84.035499 -0.000074 -131.338650 10.693936 2.140051 30.537649 -20.006046 25.917158 -27.513247 19.080509 -8.263457 0.000001 -0.000000 0.000002 -2.671034 2.270931 -46.559214 3.337899 5.285541 -64.524080 0.000000 -0.000001 0.000001 1.372412 6.367201 -56.452019 3.163409 5.199147 -62.614639 -0.000000 0.000002 -0.000000 5.474216 8.483719 -67.788029 3.827221 5.491042 -69.731437 -0.000001 0.000003 0.000001 8.522038 9.078205 -75.281956 2.845248 5.022250 -59.043980 0.000000 0.000002 -0.000000 0.000000 -0.000002 0.000001 0.000000 -0.000002 0.000001 -0.000000 -0.000001 0.000001 0.000001 -0.000002 0.000001 0.000001 -0.000003 0.000001 0.000001 -0.000002 0.000001 0.000001 -0.000001 0.000002 0.237681 26.595502 10.310711 -0.665917 34.776441 23.447894 -0.000059 105.359814 0.000047 -21.513004 -19.357231 8.026669 61.632178 28.897769 -13.280785 0.330269 -35.814828 7.397265 -0.000004 -0.000006 0.000000 -0.575499 -0.947581 17.139374 0.321397 -1.701646 21.388403 -0.000003 0.000001 0.000001 0.670078 -5.101768 53.857753 5.248123 -4.619579 97.298060 0.000003 -0.000001 0.000000 7.412609 -8.470618 67.075470 3.825501 -4.582453 79.701846 0.000001 -0.000001 -0.000001 7.484584 -8.453058 67.591784 1.968017 -3.803719 54.700946 -0.000005 -0.000002 -0.000001 -0.000001 -0.000002 -0.000000 -0.000001 -0.000001 -0.000001 -0.000001 -0.000002 0.000000 -0.000000 0.000001 0.000000 -0.000000 0.000002 -0.000001 -0.000000 0.000001 0.000000 -0.000000 0.000002 0.000000 -0.000001 -0.000001 0.000001 -0.000001 -0.000001 0.000001 -0.000001 -0.000001 0.000001 -0.000001 -0.000001 0.000001 -0.000001 -0.000001 0.000001 -0.000001 -0.000001 0.000001 -0.000001 -0.000001 0.000001 -0.000002 -0.000001 0.000000 0.000002 -0.000000 0.000000 
-3.566147 76.855827 4.433558 15.912526 -10.792902 5.962995 -0.000001 0.000001 -0.000000 -73.353923 -2.675608 16.144501 60.992046 2.893686 -2.529809 -0.442422 4.547102 -10.951716 -0.000000 0.000001 0.000000 0.000000 0.000000 -0.000000 -58.288179 -0.088311 -4.954490 83.009133 0.678783 -3.312867 -39.749549 -8.953237 2.360238 0.000000 -0.000002 -0.000000 -0.000001 0.000001 -0.000000 23.347610 -7.734459 -8.709384 4.984693 -1.505187 -2.907841 5.020318 -1.415696 -2.869556 0.494422 1.346568 -0.215899 0.494420 1.346571 -0.215890 -0.000003 0.000000 0.000000 0.494419 1.346568 -0.215895 0.494508 1.346560 -0.215901 0.000001 0.000000 -0.000000 -0.000003 0.000000 -0.000000 3.679935 -17.602933 -7.995681 -32.728463 24.173709 -52.398343 0.000135 -84.147528 0.000151 -130.645058 10.359995 1.977656 30.644115 -19.968261 26.210813 -27.513247 19.080507 -8.263461 0.000001 0.000001 -0.000001 -2.670459 2.230790 -46.293376 3.337900 5.285534 -64.524100 -0.000000 0.000002 -0.000002 1.353714 6.346023 -56.184457 3.163412 5.199148 -62.614639 0.000000 0.000004 0.000000 5.445331 8.481568 -67.517943 3.827238 5.491036 -69.731437 -0.000000 -0.000002 0.000001 8.490297 9.090249 -75.011542 2.845251 5.022250 -59.043980 0.000000 -0.000002 -0.000001 0.000001 0.000003 -0.000000 0.000001 0.000003 -0.000000 0.000001 0.000003 -0.000001 0.000000 -0.000002 0.000001 0.000000 -0.000003 0.000001 0.000000 -0.000002 0.000001 -0.000000 -0.000001 0.000001 0.214387 26.611196 10.445492 -0.191945 33.681039 23.123988 0.000279 105.665970 -0.000281 -21.614294 -18.491346 8.014239 61.632171 28.897776 -13.280786 0.330270 -35.814821 7.397270 -0.000000 0.000001 -0.000001 -0.575497 -0.947576 17.139378 0.321396 -1.701653 21.388401 -0.000001 -0.000001 -0.000000 0.670081 -5.101765 53.857753 5.248124 -4.619580 97.298053 0.000000 0.000001 -0.000000 7.412616 -8.470614 67.075463 3.825508 -4.582455 79.701846 0.000000 0.000001 0.000002 7.484587 -8.453053 67.591784 1.968021 -3.803717 54.700946 -0.000002 0.000001 0.000003 -0.000001 -0.000001 0.000005 -0.000001 -0.000001 0.000005 -0.000001 -0.000001 0.000003 0.000002 0.000001 0.000001 0.000002 0.000002 -0.000000 0.000002 0.000001 0.000001 0.000002 0.000002 0.000001 -0.000001 -0.000000 -0.000000 -0.000001 -0.000000 -0.000000 -0.000001 -0.000000 -0.000000 -0.000001 -0.000000 -0.000000 -0.000001 -0.000000 -0.000000 -0.000001 -0.000000 -0.000000 -0.000001 -0.000000 -0.000000 -0.000003 0.000002 -0.000000 -0.000001 0.000001 -0.000000 
